<?xml version="1.0" encoding="UTF-8"?>
<svg width="21px" height="21px" viewBox="0 0 21 21" version="1.1" xmlns="http://www.w3.org/2000/svg" xmlns:xlink="http://www.w3.org/1999/xlink">
    <!-- Generator: Sketch 41.2 (35397) - http://www.bohemiancoding.com/sketch -->
    <title>1485775452_Cancel</title>
    <desc>Created with Sketch.</desc>
    <defs></defs>
    <g id="Page-1" stroke="none" stroke-width="1" fill="none" fill-rule="evenodd">
        <g id="1485775452_Cancel">
            <g id="Cancel">
                <path d="M10.5,0 C4.70071875,0 0,4.70071875 0,10.5 C0,16.298625 4.70071875,21 10.5,21 C16.298625,21 21,16.2992812 21,10.5 C21,4.70071875 16.298625,0 10.5,0 Z" id="Shape" fill="#FFD34B"></path>
                <path d="M16.1730938,14.9913125 L11.8928438,10.71025 L16.1487188,6.4893125 C16.4696563,6.171625 16.4696563,5.6573125 16.1487188,5.3404375 C15.8285938,5.0235625 15.3085938,5.0235625 14.9884688,5.3404375 L10.7382813,9.5556875 L6.42471875,5.2413125 C6.10459375,4.9195625 5.58459375,4.9195625 5.26446875,5.2413125 C4.94434375,5.56225 4.94434375,6.083875 5.26446875,6.4048125 L9.57153125,10.7126875 L5.24009375,15.008375 C4.91996875,15.3260625 4.91996875,15.840375 5.24009375,16.15725 C5.56021875,16.4749375 6.08021875,16.4749375 6.40115625,16.15725 L10.7269063,11.86725 L15.0136563,16.154 C15.3337813,16.47575 15.8537813,16.47575 16.1739063,16.154 C16.4932188,15.833875 16.4932188,15.3130625 16.1730938,14.9913125 Z" id="Shape" fill="#FFFFFF"></path>
            </g>
        </g>
    </g>
</svg>