<?xml version="1.0" encoding="UTF-8"?>
<svg width="33px" height="25px" viewBox="0 0 33 25" version="1.1" xmlns="http://www.w3.org/2000/svg" xmlns:xlink="http://www.w3.org/1999/xlink">
    <!-- Generator: Sketch 41.2 (35397) - http://www.bohemiancoding.com/sketch -->
    <title>Page 1</title>
    <desc>Created with Sketch.</desc>
    <defs></defs>
    <g id="Page-1" stroke="none" stroke-width="1" fill="none" fill-rule="evenodd">
        <g id="iPhone-7" transform="translate(-171.000000, -532.000000)" fill="#FFD34B">
            <g id="Page-1" transform="translate(171.000000, 532.000000)">
                <path d="M32.7089867,5.41837209 C30.7967389,7.17273256 28.9461106,8.87069767 26.8676947,10.7776744 L26.8676947,7.51488372 C22.2304646,7.04802326 22.0517389,7.00761628 19.824969,10.2186628 C18.3095973,12.4038372 16.9904735,14.7236047 15.4946681,16.923314 C13.7436239,19.498314 11.4041283,20.9009302 8.11084513,20.6727326 C5.45799558,20.4893023 2.78178319,20.6355233 0.0229247788,20.6355233 L0.0229247788,16.8564535 C2.85888053,16.8564535 5.66650885,16.7762209 8.46596018,16.8884302 C10.0035265,16.9500581 11.1278628,16.4055814 11.9639602,15.2352326 C13.0036062,13.7802907 13.9617743,12.2675 14.9418451,10.7712791 C15.5778982,9.79976744 16.1853319,8.80965116 16.813792,7.83290698 C18.7374292,4.8427907 21.2758009,3.02476744 25.0506504,3.52389535 C25.566385,3.5919186 26.0990575,3.53319767 26.7435796,3.53319767 L26.7435796,5.81395349e-05 C28.8879956,1.94773256 30.7523496,3.64133721 32.7089867,5.41837209" id="Fill-1"></path>
                <path d="M26.7959708,24.9809593 L26.7959708,23.0661337 L26.7959708,21.4521802 C23.2468646,21.5693314 19.6927938,21.7972384 17.557431,18.1277616 C18.2440062,17.0920058 18.951608,16.0242733 19.8300504,14.699564 C21.2326965,18.1082849 23.9132894,17.8731105 26.7419442,17.5719477 L26.7419442,14.1190407 C28.8775991,16.0649709 30.7396168,17.7614826 32.7055991,19.5527616 C30.791015,21.3114826 28.9538204,22.9989826 26.7959708,24.9809593" id="Fill-4"></path>
                <path d="M12.2660416,10.1578488 C11.189015,8.37005814 9.68444867,8.04389535 7.90945752,8.11046512 C5.29953717,8.20843023 2.68319204,8.13575581 -2.92035398e-05,8.13575581 L-2.92035398e-05,4.35668605 C2.45511239,4.35668605 4.91667876,4.29709302 7.3738646,4.37848837 C8.90909469,4.42906977 10.5193779,4.44476744 11.9512274,4.91453488 C14.5231832,5.75813953 14.6353248,6.35406977 13.250785,8.59505814 C12.9718912,9.04622093 12.6854044,9.49302326 12.2660416,10.1578488" id="Fill-6"></path>
            </g>
        </g>
    </g>
</svg>